<svg xmlns="http://www.w3.org/2000/svg" viewBox="80 140 540 320" role="img" aria-label="Curia Cardani — Textured gold leaf (refined)"><title>Curia Cardani — Textured gold leaf (refined)</title><defs>
    <linearGradient id="goldGrad" x1="15%" y1="10%" x2="85%" y2="90%">
      <stop offset="0%"   stop-color="#E6B660"/>
      <stop offset="50%"  stop-color="#C9892A"/>
      <stop offset="100%" stop-color="#8E5C18"/>
    </linearGradient>
    <filter id="leafGrain" x="-2%" y="-2%" width="104%" height="104%" color-interpolation-filters="sRGB">
      <feTurbulence type="fractalNoise" baseFrequency="0.85" numOctaves="2" seed="11" result="grain"/>
      <feColorMatrix in="grain" type="matrix"
        values="0 0 0 0 0.55
                0 0 0 0 0.40
                0 0 0 0 0.15
                0 0 0 0.16 -0.06" result="grainWarm"/>
      <feTurbulence type="fractalNoise" baseFrequency="0.30" numOctaves="2" seed="19" result="speck"/>
      <feColorMatrix in="speck" type="matrix"
        values="0 0 0 0 1
                0 0 0 0 1
                0 0 0 0 0.95
                0 0 0 0.22 -0.18" result="speckLight"/>
      <feMerge><feMergeNode in="SourceGraphic"/><feMergeNode in="grainWarm"/><feMergeNode in="speckLight"/></feMerge>
      <feComposite in2="SourceGraphic" operator="in"/>
    </filter></defs><g transform="translate(100 180)" filter="url(#leafGrain)"><path d="M 181.851 13.767 C 172.405 21.351, 168.058 28.989, 168.022 38.063 C 168.003 42.851, 167.605 44.004, 165.165 46.342 L 162.331 49.057 162.799 43.414 C 163.056 40.310, 162.714 35.300, 162.038 32.281 L 160.810 26.792 157.403 30.094 C 151.146 36.158, 148.073 50.175, 151.098 58.852 C 151.992 61.415, 151.852 62.843, 150.348 66.498 C 148.024 72.151, 147.428 72.137, 146.643 66.412 C 145.979 61.567, 140.191 50.853, 138.512 51.360 C 136.779 51.884, 134.124 62.277, 134.061 68.782 C 133.993 75.762, 135.814 81.151, 139.564 85.066 C 141.887 87.492, 141.949 87.846, 140.679 91.512 L 139.336 95.392 136.918 90.508 C 134.700 86.027, 126.580 77, 124.767 77 C 124.345 77, 124.004 80.938, 124.010 85.750 C 124.021 96.148, 126.146 101.647, 133.186 109.500 C 136.987 113.739, 141.178 123, 139.296 123 C 139.026 123, 136.766 120.731, 134.273 117.959 C 129.672 112.841, 122.069 107, 120.009 107 C 118.460 107, 119.686 115.258, 122.047 120.733 C 125.041 127.676, 128.751 131.653, 135.497 135.150 C 140.686 137.841, 142.153 139.161, 143.358 142.229 C 145.152 146.797, 145.360 146.780, 139.110 142.574 C 134.304 139.340, 123.690 135.976, 122.391 137.275 C 121.316 138.351, 126.688 148.649, 130.560 152.935 C 135.275 158.153, 139.081 160.166, 144.933 160.534 C 148.969 160.788, 149.753 161.244, 151.849 164.555 L 154.212 168.289 151.856 167.553 C 143.219 164.855, 138.862 164, 133.747 164 C 126.789 164, 126.912 164.850, 135.031 172.841 C 140.882 178.601, 148.405 181.755, 157.586 182.298 C 163.241 182.633, 168.879 185.091, 168.969 187.262 C 168.997 187.945, 162.348 187.398, 159.294 186.465 C 157.637 185.959, 145.680 187.938, 144.732 188.876 C 143.638 189.959, 152.305 195.936, 158.909 198.652 C 165.384 201.316, 172.527 201.642, 177.638 199.507 C 180.994 198.105, 181.398 198.147, 184.294 200.209 L 187.377 202.405 180.656 203.645 C 173.941 204.885, 165.760 208.611, 165.608 210.500 C 165.564 211.050, 168.221 212.588, 171.514 213.918 C 180.357 217.491, 188.913 217.323, 196.783 213.422 C 202.456 210.610, 202.997 210.520, 205.907 211.898 C 210.077 213.873, 209.843 214.326, 203.937 215.729 C 198.954 216.913, 187 223.402, 187 224.923 C 187 225.351, 190.398 226.501, 194.551 227.480 C 206.035 230.184, 214.175 228.309, 221.775 221.211 C 224.682 218.495, 225.186 218.357, 228.460 219.381 C 230.407 219.991, 231.997 220.717, 231.994 220.995 C 231.987 221.561, 226.477 225.018, 223.680 226.211 C 221.157 227.287, 221.810 231.500, 224.500 231.500 C 225.942 231.500, 226.589 230.727, 226.819 228.728 C 227.409 223.590, 237.685 220.480, 243.431 223.700 C 245.173 224.676, 244.879 225.029, 240.431 227.302 C 234.145 230.514, 228.501 236.258, 229.381 238.550 C 229.921 239.956, 230.773 239.543, 234.601 236.014 C 240.437 230.635, 250.567 225.885, 253.679 227.068 C 257.798 228.634, 263.563 232.738, 266.762 236.381 C 270.315 240.428, 271.472 240.807, 272.468 238.250 C 273.217 236.326, 267.338 230.574, 261.298 227.321 C 259.484 226.344, 258 225.215, 258 224.811 C 258 223.724, 266 221.767, 268.148 222.329 C 269.168 222.595, 269.794 222.476, 269.539 222.063 C 269.284 221.650, 270.674 220.822, 272.627 220.222 C 275.901 219.218, 276.544 219.394, 280.840 222.471 C 287.285 227.088, 294.875 229.426, 300.795 228.616 C 306.899 227.780, 314.164 224.993, 313.719 223.656 C 313.057 221.672, 300.486 215.985, 295 215.188 L 289.500 214.390 294 212.342 L 298.500 210.294 302.500 212.535 C 311.788 217.739, 321.852 218.006, 331.795 213.312 C 335.893 211.377, 336.846 210.520, 336.013 209.516 C 333.855 206.916, 324.687 203.800, 318.793 203.665 C 313.733 203.549, 313.169 203.353, 314.711 202.246 C 315.695 201.540, 317.299 200.290, 318.275 199.469 C 319.853 198.142, 320.611 198.159, 325.080 199.621 C 331.488 201.717, 338.100 200.996, 345.126 197.436 C 351.223 194.347, 357.072 189.926, 356.433 188.891 C 355.407 187.232, 342.447 185.803, 337.194 186.770 L 331.889 187.747 333.977 185.525 C 335.546 183.854, 338.047 183.022, 344.047 182.174 C 353.937 180.775, 361.608 177.234, 367.488 171.354 C 374.196 164.646, 373.713 163.590, 364.250 164.277 C 359.988 164.587, 354.608 165.524, 352.295 166.360 L 348.090 167.880 349.690 164.524 C 350.930 161.923, 352.101 161.017, 354.895 160.498 C 365.501 158.525, 374.795 150.967, 378.260 141.497 C 379.228 138.851, 379.859 136.526, 379.662 136.329 C 378.729 135.396, 365.849 140.327, 362.072 143.063 C 359.730 144.759, 357.625 145.958, 357.394 145.727 C 356.241 144.574, 360.149 138.179, 362.344 137.629 C 366.104 136.685, 374.852 128.225, 377.528 122.945 C 379.617 118.823, 382.420 107, 381.309 107 C 379.259 107, 371.543 112.315, 367.332 116.629 C 364.447 119.583, 361.943 122, 361.767 122 C 361.591 122, 361.620 120.186, 361.832 117.968 C 362.131 114.828, 362.941 113.384, 365.498 111.433 C 373.195 105.563, 377.673 94.109, 376.512 83.264 L 375.815 76.758 370.788 81.629 C 368.024 84.308, 364.776 88.685, 363.571 91.356 L 361.380 96.212 360.117 91.998 C 358.969 88.164, 359.037 87.590, 360.865 85.642 C 364.546 81.721, 366.959 74.887, 366.917 68.500 C 366.875 62.103, 364.068 51.442, 362.464 51.588 C 360.736 51.746, 356.051 60.374, 354.774 65.751 C 353.625 70.585, 352 72.861, 352 69.635 C 352 68.884, 351.139 67.175, 350.087 65.837 C 348.201 63.440, 348.202 63.321, 350.169 57.494 C 352.324 51.112, 352.085 45.562, 349.377 39.062 C 347.862 35.425, 341.950 27.083, 340.850 27.031 C 339.418 26.963, 337.773 37.585, 338.266 43.722 L 338.787 50.212 336.031 47.195 C 333.672 44.612, 333.205 43.097, 332.794 36.694 C 332.425 30.943, 331.687 28.141, 329.604 24.587 C 327.123 20.353, 318.048 12, 315.929 12 C 313.138 12, 314.596 28.590, 317.607 31.089 C 319.632 32.769, 319.313 33.895, 316.984 33.286 C 315.875 32.996, 315.088 32.232, 315.234 31.589 C 315.380 30.945, 312.424 27.631, 308.664 24.223 C 301.307 17.555, 295.394 15, 287.318 15 C 282.326 15, 282.385 14.874, 284.991 19.982 C 288.366 26.598, 295.979 31.269, 307.199 33.609 C 312.126 34.636, 316.714 36.575, 322.599 40.117 C 330.544 44.898, 334.557 48.195, 330.571 46.666 C 326.368 45.053, 323.880 44.855, 322.475 46.021 C 320.521 47.642, 322.418 50.170, 325.414 49.939 C 332.029 49.430, 334.289 50.089, 337.733 53.533 C 341.923 57.723, 341.623 58.576, 336.686 56.513 C 334.694 55.681, 331.209 55, 328.941 55 C 325.674 55, 323.969 54.273, 320.729 51.500 C 315.390 46.930, 314 46.997, 314 51.822 C 314 57.790, 316.695 64.262, 321.549 69.948 C 327.213 76.584, 327.188 76.629, 319.899 72.949 C 316.543 71.255, 313.616 70.050, 313.395 70.272 C 313.173 70.494, 314.747 74.236, 316.892 78.588 C 321.104 87.132, 326.119 92.675, 333.429 96.861 C 337.476 99.179, 338.474 100.467, 341.355 107.094 C 345.277 116.116, 348.687 120.818, 353.957 124.470 C 359.090 128.027, 359.273 128.792, 356.846 136.525 C 354.655 143.507, 354.210 143.890, 353.412 139.488 C 352.564 134.811, 343.939 121, 341.866 121 C 340.707 121, 339.704 133.709, 340.431 139.189 C 341.215 145.105, 345.048 153.220, 348.051 155.323 L 350.138 156.785 346.974 162.393 C 343.009 169.418, 342.532 169.387, 342.366 162.085 C 342.230 156.105, 338.186 145, 336.145 145 C 334.455 145, 330.885 153.715, 330.316 159.227 C 329.969 162.586, 330.352 166.744, 331.355 170.522 C 332.229 173.810, 333.183 177.400, 333.476 178.500 C 333.850 179.903, 332.790 181.820, 329.927 184.921 L 325.845 189.342 326.673 185.421 C 327.789 180.130, 327.459 171.922, 325.946 167.337 L 324.705 163.575 320.893 167.870 C 314.129 175.492, 311.889 184.937, 314.133 196.370 C 314.460 198.035, 305.439 205.772, 304.392 204.725 C 304.215 204.548, 305.199 201.606, 306.580 198.188 C 308.563 193.280, 309.029 190.580, 308.795 185.354 L 308.500 178.736 303.351 182.811 C 297.047 187.801, 293.197 195.137, 292.206 204.046 C 291.446 210.878, 289.658 212.835, 282.582 214.581 L 279.664 215.301 282.792 211.401 C 286.999 206.155, 291.815 190.978, 289.262 191.009 C 283.981 191.074, 270.651 203.869, 268.955 210.500 C 267.259 217.130, 266.285 218.712, 263.462 219.420 C 259.690 220.367, 259.537 219.771, 262.451 215.478 C 265.364 211.185, 265.654 209.188, 263.487 208.357 C 261.126 207.451, 258.930 209.873, 259.620 212.622 C 260.914 217.779, 252.956 224.074, 247.679 222.068 C 244.089 220.703, 241 216.216, 241 212.365 C 241 209.464, 240.663 209, 238.559 209 C 234.828 209, 234.541 210.731, 237.553 215.077 C 240.640 219.531, 240.421 220.605, 236.766 218.939 C 234.907 218.092, 233.873 216.364, 232.699 212.143 C 231.834 209.030, 230.077 204.911, 228.796 202.991 C 226.445 199.469, 214.939 191, 212.504 191 C 209.273 191, 214.414 207.619, 219.232 212.747 C 221.884 215.570, 220.327 215.626, 214.067 212.933 L 209.263 210.867 208.767 204.683 C 208.064 195.927, 204.715 188.828, 198.761 183.475 C 196.029 181.019, 193.334 179.293, 192.772 179.641 C 191.111 180.667, 192.490 193.059, 194.862 198.421 C 197.561 204.521, 197.086 205.025, 191.974 201.482 C 186.656 197.797, 186.680 197.858, 188.003 191.485 C 189.642 183.590, 187.412 176.424, 181.274 169.862 C 177.967 166.326, 176.359 165.241, 175.583 166.017 C 173.925 167.675, 174.181 185.308, 175.893 187.370 C 179.198 191.354, 175.940 189.502, 171.203 184.706 L 166.023 179.460 168.229 175.003 C 171.477 168.438, 171.673 160.100, 168.779 151.677 C 167.489 147.924, 165.999 144.824, 165.467 144.787 C 163.396 144.644, 158.503 156.251, 158.345 161.681 C 158.141 168.657, 157.446 168.673, 154.323 161.770 L 151.731 156.040 155.245 152.151 C 160.269 146.589, 161.513 142.181, 161.422 130.255 C 161.337 119.252, 160.824 117.557, 158.485 120.573 C 153.973 126.393, 148.897 134.605, 148.401 136.887 C 147.197 142.427, 146.698 142.443, 144.920 137 C 142.221 128.743, 142.433 127.383, 146.852 124.594 C 154.597 119.704, 159.361 111.289, 160.665 100.193 C 161.399 93.949, 161.741 93.946, 153.303 100.267 C 150.444 102.409, 146.685 106.375, 144.948 109.080 C 141.091 115.092, 140.647 115.177, 141.466 109.750 C 142.920 100.110, 142.987 99.959, 145.470 100.582 C 148.429 101.324, 149.911 99.139, 147.597 97.447 C 146.089 96.345, 146.530 95.904, 151.349 93.698 C 157.435 90.912, 163.319 85.369, 166.814 79.130 L 169.128 75 165.190 75 C 160.399 75, 153.802 77.224, 150.209 80.050 C 146.582 82.903, 146.156 80.874, 149.364 76.027 C 151.721 72.464, 152.392 72.101, 157.714 71.502 C 165.857 70.587, 174.948 65.990, 179.427 60.524 L 183.085 56.059 180.457 55.400 C 176.523 54.413, 165.627 55.541, 162.100 57.300 C 158.103 59.294, 158.159 58.185, 162.250 54.330 C 166.402 50.418, 171.438 48.632, 173.930 50.188 C 176.345 51.697, 179 50.551, 179 48 C 179 45.569, 176.353 44.247, 174.733 45.867 C 173.468 47.132, 169.976 47.417, 170.043 46.250 C 170.066 45.837, 172.337 43.763, 175.089 41.640 C 179.789 38.015, 183.401 36.531, 197.115 32.595 C 204.464 30.485, 208.583 27.584, 212.659 21.647 C 216.540 15.995, 216.289 15, 210.978 15 C 203.412 15, 196.902 18.419, 189.053 26.514 C 185.060 30.631, 181.676 34, 181.533 34 C 181.389 34, 182.313 31.944, 183.585 29.431 C 186.107 24.450, 187.347 18.263, 186.830 13.240 L 186.500 10.034 181.851 13.767 M 179.110 20.528 C 174.361 25.936, 168.957 39, 171.469 39 C 174.125 39, 181.419 27.540, 182.869 21.089 C 183.995 16.077, 183.131 15.948, 179.110 20.528 M 317 18.394 C 317 23.903, 327.332 40.930, 329.433 38.884 C 330.698 37.652, 328.676 29.881, 325.990 25.645 C 322.778 20.581, 317 15.920, 317 18.394 M 202.242 20.494 C 197.931 22.368, 192.167 26.819, 190.839 29.301 C 189.829 31.188, 190.001 31.256, 194.137 30.602 C 199.306 29.785, 204.934 26.306, 207.958 22.058 L 210.136 19 207.818 19.039 C 206.543 19.061, 204.034 19.715, 202.242 20.494 M 290 21.060 C 290 23.541, 299.662 29.471, 305.484 30.563 L 309.398 31.297 306.949 28.315 C 305.602 26.675, 303.477 24.554, 302.227 23.603 C 299.847 21.790, 290 19.743, 290 21.060 M 156.025 37.950 C 153.478 42.944, 152.383 51.393, 153.815 55 C 154.781 57.431, 154.871 57.361, 157.078 52.500 C 159.637 46.864, 160.735 38.137, 159.225 35.438 C 158.350 33.874, 157.941 34.195, 156.025 37.950 M 341.389 37.739 C 340.088 44.675, 344.767 59.556, 347.094 55.882 C 348.924 52.993, 348.075 44.081, 345.483 38.967 C 342.466 33.013, 342.286 32.959, 341.389 37.739 M 317 54.374 C 317 56.619, 320.791 64.281, 323.699 67.913 C 325.719 70.436, 327.513 72.688, 327.686 72.917 C 327.859 73.146, 328.223 73.110, 328.497 72.837 C 329.739 71.595, 325.571 61.531, 322.327 57.940 C 319.274 54.561, 317 53.039, 317 54.374 M 137.996 62.514 C 136.492 67.886, 137.215 74.563, 139.859 79.716 L 141.752 83.406 142.476 80.110 C 143.688 74.592, 143.247 65.713, 141.565 61.750 C 139.568 57.046, 139.524 57.055, 137.996 62.514 M 166.882 59.381 C 162.222 61.046, 156.888 64.354, 154.434 67.101 C 152.519 69.245, 152.519 69.260, 154.500 68.720 C 155.600 68.420, 158.279 67.873, 160.453 67.504 C 165.494 66.649, 170.829 63.913, 173.924 60.597 L 176.349 58 173.424 58.044 C 171.816 58.068, 168.872 58.670, 166.882 59.381 M 327.033 58.750 C 327.180 62.066, 334.343 66.479, 341.263 67.517 C 347.015 68.379, 347.398 67.168, 342.545 63.467 C 337.912 59.933, 326.938 56.596, 327.033 58.750 M 359.651 61.914 C 357.764 66.629, 357.305 82, 359.051 82 C 362.336 82, 364.907 64.230, 362.297 59.566 C 361.441 58.036, 361.071 58.364, 359.651 61.914 M 331.565 70.276 C 331.941 71.499, 332.305 72.565, 332.374 72.645 C 332.443 72.725, 335.693 73.735, 339.594 74.891 C 343.496 76.047, 348.559 78.347, 350.844 80.002 C 355.630 83.469, 355.735 83.380, 352.893 78.280 C 349.692 72.534, 349.388 72.321, 343.417 71.619 C 340.357 71.259, 336.284 70.310, 334.367 69.509 C 330.948 68.080, 330.895 68.095, 331.565 70.276 M 332 76.374 C 332 77.130, 333.220 79.932, 334.712 82.601 C 336.204 85.269, 337.940 89.489, 338.571 91.977 C 339.571 95.918, 340.410 96.915, 345.086 99.726 C 351.237 103.423, 354.778 106.427, 357.200 110 L 358.895 112.500 358.948 108.825 C 358.995 105.515, 358.578 104.917, 354.750 102.805 C 352.067 101.326, 350.500 99.761, 350.500 98.564 C 350.500 95.680, 352.349 95.667, 355.438 98.530 C 358.364 101.242, 359.444 101.322, 358.459 98.754 C 358.135 97.911, 355.157 96.231, 351.841 95.022 C 344.310 92.276, 338.836 87.408, 335.412 80.411 C 332.677 74.820, 332 74.019, 332 76.374 M 320 77.560 C 320 80.755, 333.963 95.370, 335.524 93.809 C 336.986 92.347, 330.161 82.345, 326 79.853 C 321.410 77.103, 320 76.565, 320 77.560 M 157.003 80.578 C 150.620 83.549, 148.359 85.404, 146.324 89.341 C 144.278 93.297, 145.049 93.515, 150.788 90.607 C 155.286 88.328, 163 80.882, 163 78.820 C 163 77.738, 163.285 77.654, 157.003 80.578 M 337 78.455 C 337 81.610, 353.978 94.356, 355.779 92.554 C 357.065 91.268, 350.259 83.499, 345.991 81.380 C 340.895 78.851, 337 77.583, 337 78.455 M 127 86.667 C 127 91.538, 129.510 98.491, 133.046 103.414 C 137.286 109.318, 137.827 109.189, 136.918 102.492 C 136.042 96.042, 133.005 89.292, 129.491 85.992 L 127 83.651 127 86.667 M 371.495 85.353 C 365.818 93.075, 364.919 95.032, 364.161 101.326 C 363.271 108.717, 363.655 109.310, 366.680 105.219 C 370.343 100.265, 372.747 94.615, 373.475 89.250 C 374.175 84.090, 373.459 82.681, 371.495 85.353 M 151.236 106.359 C 147.711 110.184, 143 118.631, 143 121.127 C 143 124.552, 151.106 117.432, 153.849 111.599 C 158.621 101.447, 157.618 99.436, 151.236 106.359 M 344 104.220 C 344 108.768, 355.750 124.584, 357.689 122.645 C 358.463 121.871, 355.969 114.852, 353.842 111.819 C 351.184 108.028, 344 102.481, 344 104.220 M 124.973 118.170 C 127.080 123.717, 131.747 129.253, 136.343 131.659 C 137.907 132.478, 139.341 132.992, 139.531 132.802 C 140.993 131.340, 126.506 113, 123.889 113 C 123.405 113, 123.892 115.326, 124.973 118.170 M 370.889 118.014 C 365.753 123.181, 359.790 134, 362.078 134 C 364.240 134, 372.128 125.437, 374.577 120.433 C 378.454 112.508, 377.187 111.677, 370.889 118.014 M 154.497 132.416 C 151.358 137.772, 150 142.249, 150 147.243 C 150 156.615, 157.071 145.954, 157.955 135.250 C 158.649 126.837, 158.053 126.348, 154.497 132.416 M 343 133.818 C 343 139.123, 345.593 147.321, 347.943 149.448 C 352.280 153.373, 351.860 141.959, 347.383 134.250 C 344.328 128.987, 343 128.857, 343 133.818 M 127 141.590 C 127 143.119, 132.460 150.233, 135.654 152.866 C 139.080 155.691, 145.382 157.951, 146.557 156.777 C 147.445 155.889, 140.036 147.186, 136.567 145.041 C 133.132 142.918, 127 140.706, 127 141.590 M 368.279 143.548 C 361.065 147.143, 352.203 157, 356.184 157 C 360.623 157, 370.751 149.071, 373.953 143.088 C 375.401 140.382, 374.485 140.456, 368.279 143.548 M 335.116 153.315 C 332.930 158.828, 334.321 175, 336.981 175 C 339.251 175, 339.659 159.670, 337.540 154 L 336.232 150.500 335.116 153.315 M 163.097 155.150 C 160.867 161.548, 162.268 175.188, 164.983 173.511 C 166.919 172.314, 168.128 162.396, 166.922 157.606 C 165.454 151.774, 164.490 151.155, 163.097 155.150 M 135.038 167.750 C 135.198 170.920, 149.863 178.847, 155.750 178.946 C 160.094 179.018, 159.845 177.795, 154.755 174.051 C 149.226 169.985, 134.920 165.414, 135.038 167.750 M 359.500 168.401 C 352.584 170.104, 347.798 172.554, 344.393 176.134 L 341.500 179.176 346.500 178.454 C 353.143 177.496, 358.928 174.701, 363.032 170.467 C 366.727 166.655, 366.687 166.632, 359.500 168.401 M 178.022 177.054 C 177.999 183.820, 182.033 194.715, 184.091 193.444 C 187.029 191.628, 184.419 178.304, 180.087 173 L 178.044 170.500 178.022 177.054 M 321.878 172.636 C 317.917 177.190, 315.828 185.318, 316.988 191.669 L 317.688 195.500 320.897 188.839 C 323.567 183.296, 324.054 181.221, 323.803 176.475 C 323.518 171.105, 323.406 170.881, 321.878 172.636 M 195.562 188.500 C 197.044 196.627, 202.349 207, 205.024 207 C 208.165 207, 202.722 192.015, 197.919 187.440 L 194.833 184.500 195.562 188.500 M 301.740 188.750 C 298.603 192.025, 296.490 196.849, 295.498 203 L 294.772 207.500 297.448 205.017 C 301.635 201.133, 304.355 196.030, 305.026 190.800 C 305.738 185.247, 305.336 184.996, 301.740 188.750 M 152.440 191.447 C 155.788 194.124, 164.872 197, 169.978 197 C 182.229 197, 172.213 190.865, 159 190.275 C 151.186 189.927, 150.657 190.021, 152.440 191.447 M 331.311 192.075 C 323.867 195.760, 323.820 197.001, 331.128 196.990 C 337.440 196.981, 346.764 193.809, 348.436 191.103 C 349.745 188.985, 335.974 189.767, 331.311 192.075 M 215 196.339 C 215 202.295, 225.670 216, 230.307 216 C 232.052 216, 227.179 206.339, 223.552 202.607 C 219.776 198.721, 215 195.221, 215 196.339 M 279.377 201.452 C 274.808 205.448, 268.938 215.271, 270.302 216.636 C 271.409 217.742, 279.824 209.878, 282.750 205.003 C 288.205 195.915, 287.071 194.721, 279.377 201.452 M 175.250 208.247 C 170.949 209.627, 171.150 210.398, 176.250 212.089 C 181.985 213.990, 187.587 213.720, 193 211.280 L 197.500 209.253 194.685 208.126 C 191.247 206.751, 179.691 206.822, 175.250 208.247 M 307.500 208.372 L 304.500 209.655 306.926 210.957 C 312.140 213.755, 329 213.086, 329 210.081 C 329 207.373, 312.842 206.089, 307.500 208.372 M 204.110 219.083 C 193.483 223.335, 193.249 224.958, 203.261 224.985 C 209.106 225, 216.638 222.346, 219.072 219.414 C 220.483 217.713, 208.211 217.442, 204.110 219.083 M 282.294 219.405 C 282.936 221.375, 293.342 224.938, 298.500 224.954 C 304.392 224.972, 307.396 223.603, 305 221.991 C 300.027 218.646, 281.353 216.519, 282.294 219.405 M 273 225.282 C 274.375 226.502, 275.500 228.400, 275.500 229.500 C 275.500 230.964, 276.167 231.500, 277.986 231.500 C 281.010 231.500, 282.030 228.317, 279.324 227.327 C 278.321 226.960, 276.427 225.836, 275.115 224.830 C 271.738 222.238, 269.991 222.612, 273 225.282" fill="url(#goldGrad)" fill-rule="evenodd"/></g><svg x="275" y="226" width="150" height="138" viewBox="0 0 375 346.51" color="#0033AD"><path d="M102.76,172a25.31,25.31,0,0,0,23.78,26.65c.49,0,1,0,1.46,0A25.26,25.26,0,1,0,102.76,172Z" fill="currentColor"/>
      <path d="M8.62,165.5a8.16,8.16,0,1,0,7.69,8.61A8.15,8.15,0,0,0,8.62,165.5Z" fill="currentColor"/>
      <path d="M101.16,25.43a8.16,8.16,0,1,0-11-3.62A8.18,8.18,0,0,0,101.16,25.43Z" fill="currentColor"/>
      <path d="M126.78,70.1a12.61,12.61,0,1,0-16.94-5.59A12.62,12.62,0,0,0,126.78,70.1Z" fill="currentColor"/>
      <path d="M40.58,100.82a10.39,10.39,0,1,0-3-14.38A10.39,10.39,0,0,0,40.58,100.82Z" fill="currentColor"/>
      <path d="M55.93,161a12.62,12.62,0,1,0,11.88,13.31A12.62,12.62,0,0,0,55.93,161Z" fill="currentColor"/>
      <path d="M42,245.72a10.39,10.39,0,1,0,13.95,4.6A10.37,10.37,0,0,0,42,245.72Z" fill="currentColor"/>
      <path d="M91,134.89a14.84,14.84,0,1,0-4.27-20.55A14.83,14.83,0,0,0,91,134.89Z" fill="currentColor"/>
      <path d="M246.47,69.1a12.62,12.62,0,1,0-3.63-17.47A12.61,12.61,0,0,0,246.47,69.1Z" fill="currentColor"/>
      <path d="M272.35,24.57A8.16,8.16,0,1,0,270,13.26,8.16,8.16,0,0,0,272.35,24.57Z" fill="currentColor"/>
      <path d="M248.45,147.91a25.25,25.25,0,0,0-2.87,50.42c.49,0,1,0,1.45,0a25.25,25.25,0,0,0,1.42-50.46Z" fill="currentColor"/>
      <path d="M135.08,133.14A25.12,25.12,0,0,0,157.64,147a25.25,25.25,0,0,0,22.54-36.62,25.25,25.25,0,1,0-45.1,22.73Z" fill="currentColor"/>
      <path d="M333,100.79a10.39,10.39,0,1,0-14-4.6A10.4,10.4,0,0,0,333,100.79Z" fill="currentColor"/>
      <path d="M269,108.83a14.84,14.84,0,1,0,19.94,6.58A14.86,14.86,0,0,0,269,108.83Z" fill="currentColor"/>
      <path d="M186.55,20.76a10.39,10.39,0,1,0-9.79-11A10.38,10.38,0,0,0,186.55,20.76Z" fill="currentColor"/>
      <path d="M186.43,86.13a14.84,14.84,0,1,0-14-15.66A14.84,14.84,0,0,0,186.43,86.13Z" fill="currentColor"/>
      <path d="M106,237.68a14.84,14.84,0,1,0-19.93-6.58A14.85,14.85,0,0,0,106,237.68Z" fill="currentColor"/>
      <path d="M196,107.79a25.22,25.22,0,1,0,21.14-11.41A25.28,25.28,0,0,0,196,107.79Z" fill="currentColor"/>
      <path d="M239.92,213.37a25.26,25.26,0,1,0-11.18,33.91A25.11,25.11,0,0,0,239.92,213.37Z" fill="currentColor"/>
      <path d="M284,211.62a14.84,14.84,0,1,0,4.27,20.55A14.84,14.84,0,0,0,284,211.62Z" fill="currentColor"/>
      <path d="M332.38,173.68a12.62,12.62,0,1,0-13.31,11.88A12.62,12.62,0,0,0,332.38,173.68Z" fill="currentColor"/>
      <path d="M367.3,164.71a8.16,8.16,0,1,0,7.69,8.61A8.17,8.17,0,0,0,367.3,164.71Z" fill="currentColor"/>
      <path d="M334.42,245.68a10.39,10.39,0,1,0,3,14.39A10.39,10.39,0,0,0,334.42,245.68Z" fill="currentColor"/>
      <path d="M102.65,321.94a8.16,8.16,0,1,0,2.34,11.3A8.17,8.17,0,0,0,102.65,321.94Z" fill="currentColor"/>
      <path d="M273.83,321.08a8.16,8.16,0,1,0,11,3.62A8.16,8.16,0,0,0,273.83,321.08Z" fill="currentColor"/>
      <path d="M179,238.71a25.25,25.25,0,1,0-21.14,11.41A25.1,25.1,0,0,0,179,238.71Z" fill="currentColor"/>
      <path d="M128.53,277.41a12.62,12.62,0,1,0,3.63,17.47A12.62,12.62,0,0,0,128.53,277.41Z" fill="currentColor"/>
      <path d="M187.38,325.74a10.39,10.39,0,1,0,9.78,11A10.39,10.39,0,0,0,187.38,325.74Z" fill="currentColor"/>
      <path d="M187.49,260.37a14.84,14.84,0,1,0,14,15.67A14.85,14.85,0,0,0,187.49,260.37Z" fill="currentColor"/>
      <path d="M248.21,276.4a12.62,12.62,0,1,0,17,5.59A12.62,12.62,0,0,0,248.21,276.4Z" fill="currentColor"/></svg></svg>